<svg width="875" height="793" viewBox="0 0 875 793" fill="none" xmlns="http://www.w3.org/2000/svg">
	<path d="M-12 0H874V0.00073C874 96.3909 855.015 191.837 818.128 280.89C781.241 369.943 727.175 450.858 659.017 519.017C590.858 587.175 509.943 641.241 420.89 678.128C331.837 715.015 236.391 734 140.001 734H-12V0Z" fill="#0f0900" />
	<path d="M640.859 250.308C680.559 250.308 712.742 218.125 712.742 178.425C712.742 138.725 680.559 106.542 640.859 106.542C601.159 106.542 568.976 138.725 568.976 178.425C568.976 218.125 601.159 250.308 640.859 250.308Z" fill="#F2F2F2" />
	<path d="M420.075 38.7663C423.478 38.7663 426.236 36.0077 426.236 32.6049C426.236 29.202 423.478 26.4435 420.075 26.4435C416.672 26.4435 413.914 29.202 413.914 32.6049C413.914 36.0077 416.672 38.7663 420.075 38.7663Z" fill="#FF6584" />
	<path d="M620.321 451.581C623.724 451.581 626.482 448.822 626.482 445.419C626.482 442.017 623.724 439.258 620.321 439.258C616.918 439.258 614.16 442.017 614.16 445.419C614.16 448.822 616.918 451.581 620.321 451.581Z" fill="#FF6584" />
	<path d="M640.859 38.7663C644.262 38.7663 647.02 36.0077 647.02 32.6049C647.02 29.202 644.262 26.4435 640.859 26.4435C637.456 26.4435 634.698 29.202 634.698 32.6049C634.698 36.0077 637.456 38.7663 640.859 38.7663Z" fill="#F2F2F2" />
	<path d="M727.119 335.541C730.522 335.541 733.28 332.782 733.28 329.38C733.28 325.977 730.522 323.218 727.119 323.218C723.716 323.218 720.957 325.977 720.957 329.38C720.957 332.782 723.716 335.541 727.119 335.541Z" fill="#F2F2F2" />
	<path d="M481.689 205.124C485.092 205.124 487.851 202.366 487.851 198.963C487.851 195.56 485.092 192.802 481.689 192.802C478.286 192.802 475.528 195.56 475.528 198.963C475.528 202.366 478.286 205.124 481.689 205.124Z" fill="#F2F2F2" />
	<path d="M156.161 164.048C159.564 164.048 162.323 161.29 162.323 157.887C162.323 154.484 159.564 151.725 156.161 151.725C152.758 151.725 150 154.484 150 157.887C150 161.29 152.758 164.048 156.161 164.048Z" fill="#F2F2F2" />
	<path d="M272.201 623.073C387.898 623.073 481.689 529.282 481.689 413.585C481.689 297.888 387.898 204.097 272.201 204.097C156.504 204.097 62.7132 297.888 62.7132 413.585C62.7132 529.282 156.504 623.073 272.201 623.073Z" fill="#FF9900" />
	<path opacity="0.2" d="M262.959 359.16C279.973 359.16 293.766 345.367 293.766 328.353C293.766 311.338 279.973 297.546 262.959 297.546C245.945 297.546 232.152 311.338 232.152 328.353C232.152 345.367 245.945 359.16 262.959 359.16Z" fill="black" />
	<path opacity="0.2" d="M262.959 588.159C292.45 588.159 316.358 564.251 316.358 534.76C316.358 505.268 292.45 481.361 262.959 481.361C233.468 481.361 209.56 505.268 209.56 534.76C209.56 564.251 233.468 588.159 262.959 588.159Z" fill="black" />
	<path opacity="0.2" d="M107.897 466.984C115.27 466.984 121.247 461.007 121.247 453.635C121.247 446.262 115.27 440.285 107.897 440.285C100.524 440.285 94.5472 446.262 94.5472 453.635C94.5472 461.007 100.524 466.984 107.897 466.984Z" fill="black" />
	<path opacity="0.2" d="M634.606 148.443C638.525 148.443 641.703 145.266 641.703 141.346C641.703 137.427 638.525 134.25 634.606 134.25C630.687 134.25 627.509 137.427 627.509 141.346C627.509 145.266 630.687 148.443 634.606 148.443Z" fill="black" />
	<path opacity="0.2" d="M333.724 289.129C337.643 289.129 340.82 285.951 340.82 282.032C340.82 278.113 337.643 274.935 333.724 274.935C329.804 274.935 326.627 278.113 326.627 282.032C326.627 285.951 329.804 289.129 333.724 289.129Z" fill="black" />
	<path opacity="0.2" d="M253.717 432.07C258.821 432.07 262.959 427.932 262.959 422.828C262.959 417.723 258.821 413.585 253.717 413.585C248.613 413.585 244.475 417.723 244.475 422.828C244.475 427.932 248.613 432.07 253.717 432.07Z" fill="black" />
	<path opacity="0.2" d="M617.332 205.143C621.251 205.143 624.429 201.965 624.429 198.046C624.429 194.127 621.251 190.949 617.332 190.949C613.413 190.949 610.235 194.127 610.235 198.046C610.235 201.965 613.413 205.143 617.332 205.143Z" fill="black" />
	<path opacity="0.2" d="M426.328 379.716C430.248 379.716 433.425 376.539 433.425 372.619C433.425 368.7 430.248 365.523 426.328 365.523C422.409 365.523 419.232 368.7 419.232 372.619C419.232 376.539 422.409 379.716 426.328 379.716Z" fill="black" />
	<path opacity="0.2" d="M680.927 201.604C686.588 201.604 691.177 197.014 691.177 191.353C691.177 185.692 686.588 181.102 680.927 181.102C675.265 181.102 670.676 185.692 670.676 191.353C670.676 197.014 675.265 201.604 680.927 201.604Z" fill="black" />
	<path opacity="0.2" d="M367.721 455.248C373.383 455.248 377.972 450.659 377.972 444.998C377.972 439.336 373.383 434.747 367.721 434.747C362.06 434.747 357.471 439.336 357.471 444.998C357.471 450.659 362.06 455.248 367.721 455.248Z" fill="black" />
	<path opacity="0.2" d="M142.812 341.702C150.184 341.702 156.161 335.725 156.161 328.353C156.161 320.98 150.184 315.003 142.812 315.003C135.439 315.003 129.462 320.98 129.462 328.353C129.462 335.725 135.439 341.702 142.812 341.702Z" fill="black" />
	<path d="M317.589 534.338C295.559 534.308 273.548 533.036 251.66 530.528C185.829 523.052 125.115 505.386 80.7011 480.785C35.7441 455.883 12.7395 426.725 15.9241 398.681C18.1303 379.252 36.9094 361.862 73.3338 345.519C73.8307 345.297 74.3953 345.282 74.9038 345.476C75.4122 345.67 75.8228 346.058 76.0456 346.554C76.2683 347.051 76.285 347.615 76.0919 348.124C75.8987 348.633 75.5117 349.044 75.0156 349.268C40.0282 364.965 22.0343 381.28 20.0056 399.145C17.0202 425.43 39.2826 453.147 82.6917 477.192C126.644 501.538 186.816 519.029 252.124 526.446C317.432 533.863 379.993 530.309 428.285 516.44C475.981 502.741 503.892 480.722 506.876 454.437C508.896 436.655 499.101 417.8 478.551 399.911C478.141 399.553 477.889 399.047 477.851 398.503C477.813 397.96 477.993 397.424 478.351 397.013C478.709 396.602 479.215 396.35 479.758 396.312C480.302 396.275 480.838 396.454 481.249 396.812C502.864 415.629 513.137 435.716 510.958 454.9C507.773 482.943 478.816 506.201 429.42 520.387C397.258 529.624 358.871 534.338 317.589 534.338Z" fill="white" />
</svg>
