<?xml version="1.0"?>
<svg xmlns="http://www.w3.org/2000/svg" id="Layer_1" enable-background="new 0 0 512 512" viewBox="0 0 512 512" width="512px" height="512px" class=""><g><g><path d="m97.9 84.9c1.3 0 2.7-.4 3.8-1.3 3.8-3 7.7-6 11.7-8.8 2.7-1.9 3.4-5.6 1.5-8.4-1.9-2.7-5.6-3.4-8.4-1.5-4.2 2.9-8.3 6.1-12.3 9.3-2.6 2.1-3 5.9-.9 8.4 1.1 1.6 2.8 2.3 4.6 2.3z" data-original="#000000" class="active-path" data-old_color="#000000" fill="#FAAD14"/><path d="m26.4 179.6c.7.3 1.4.4 2.1.4 2.4 0 4.7-1.5 5.6-3.9 11-28.9 27.9-54.9 50.2-77.1 2.4-2.3 2.4-6.1 0-8.5-2.3-2.4-6.1-2.4-8.5 0-23.5 23.4-41.4 50.8-53 81.3-1 3.2.5 6.6 3.6 7.8z" data-original="#000000" class="active-path" data-old_color="#000000" fill="#FAAD14"/><path d="m437 362.8c-2.8-1.7-6.5-.8-8.2 2.1-3.4 5.6-7 11.2-10.9 16.5-2 2.7-1.4 6.4 1.3 8.4 1.1.8 2.3 1.2 3.5 1.2 1.9 0 3.7-.9 4.9-2.5 4.1-5.6 8-11.5 11.5-17.4 1.7-3 .8-6.6-2.1-8.3z" data-original="#000000" class="active-path" data-old_color="#000000" fill="#FAAD14"/><path d="m462.2 318.1c3.4-11.6 5.9-23.6 7.4-35.7 1.2-9.5 1.8-19.3 1.8-28.9 0-3.3-2.7-6-6-6s-6 2.7-6 6c0 9.2-.6 18.4-1.7 27.4-1.4 11.4-3.8 22.8-7 33.8-2 6.7-4.3 13.4-6.9 19.9-1.6 4-3.3 7.9-5.2 11.8-1.4 3-.1 6.6 2.9 8 .8.4 1.7.6 2.6.6 2.2 0 4.4-1.3 5.4-3.4 1.9-4.1 3.8-8.3 5.5-12.5 2.7-6.9 5.1-13.9 7.2-21z" data-original="#000000" class="active-path" data-old_color="#000000" fill="#FAAD14"/><path d="m132.4 63.6c3.8 0 6.9-3.1 6.9-6.9s-3.1-6.9-6.9-6.9-6.9 3.1-6.9 6.9 3.1 6.9 6.9 6.9z" data-original="#000000" class="active-path" data-old_color="#000000" fill="#FAAD14"/><path d="m406.2 396.5c-3.8 0-6.9 3.1-6.9 6.9s3.1 6.9 6.9 6.9 6.9-3.1 6.9-6.9-3.1-6.9-6.9-6.9z" data-original="#000000" class="active-path" data-old_color="#000000" fill="#FAAD14"/><path d="m436.1 229.5c-5.6-5.1-7-13.4-3.6-20 46.4-39.1 73.7-98.5 70.7-162-.2-3.3-2.9-5.9-6.3-5.7-44.7 2.1-86.3 18.6-120.5 47.8-3.5 3-7 6.2-10.3 9.4-35.6-28.9-80.3-44.8-126.5-44.8-110.4 0-200.2 89.3-200.2 199.1 0 26.5 5.2 52.2 15 75.9-41.1 58.9-54.4 98.8-40.7 122 7.8 13.1 24.1 19.9 47.6 19.9 5.3 0 11-.3 17-1 17.2-2 34.6-6.7 51.7-14 12.7-5.4 24.7-11.3 36.2-17.4 23.4 9.2 48.1 13.9 73.6 13.9 51.2 0 99.9-19.2 137.2-54.1 36.6-34.3 58.7-80.3 62.5-130 9.1-11.7 7.8-28.8-3.4-39zm55.3-175.3c.1 9.8-.5 19.5-1.8 29-10.8-5.9-20.1-14.3-27-24.5 9.4-2.2 19-3.7 28.8-4.5zm-107.1 44.6c19.7-16.9 42.1-29.2 66.2-36.7 8.8 14.4 21.7 26.1 36.9 33.5-13.5 63.9-59.8 117.7-123.7 139.1l-40.4-36.8c9.3-38.2 30.8-73.3 61-99.1zm-72.1 128.1 19.6-5.1 8.6 7.8-3.9 19.4zm3.8 31.8c0 .7 0 1.5-.2 2.2-.7 3.1-3.2 5.4-6.3 6l-10 1.7.8-10.1c.2-3.2 2.5-6 5.6-6.9.6-.2 1.3-.3 1.9-.3h.4c2 0 3.8.7 5.3 2.1 1.5 1.3 2.4 3.2 2.5 5.3zm-2-72.4c-10.3 9.7-26.7 10-37.4.4l-18.3-16.5 31.9-34.5c3-3.3 7.1-5.2 11.6-5.5 4.5-.2 8.8 1.3 12.1 4.3 5.4 4.9 12.2 7.4 19.1 7.4-8.1 14-14.5 28.9-19 44.4zm-74.3-119.9c43.1 0 84.8 14.7 118.2 41.5-5.6 6.2-10.7 12.7-15.5 19.5-6.3 4.1-14.8 3.5-20.4-1.6-5.7-5.2-13-7.8-20.7-7.5-7.7.4-14.7 3.7-19.9 9.3l-36 39c-1.1 1.2-1.7 2.7-1.6 4.3s.8 3.1 2 4.2l22.9 20.5c7.5 6.8 17 10.1 26.5 10.1 5.5 0 11-1.1 16.1-3.4l10 9.9-16.7 4.4c-1.6.4-3.1 1-4.5 1.7-3 1.5-5.6 3.9-7.6 6.6-9.9 13.2-28.6 37.7-51.5 64.6l-12.7-17.2c-7-9.7-17.8-15.3-28.9-15.1l-20.5-12.2c-7.8-4.7-17.6-4.9-25.6-.6l-10.9 5.8c-7.1 3.8-16 1.4-20.3-5.3l-10.6-16.6c-3.6-5.7-3.5-12.9.3-18.5 4.3-6.2 11.6-9.5 19.1-8.6l15.9 2c8.2 1 16.1-2.8 20.1-9.7 3.9-6.6 11.3-10.2 18.9-9.3l6.9.9c7 .9 14.1-2 18.4-7.6l6.1-7.9c7.1-9.2 7.5-21.8.8-31.4l-13.2-18.9c-5.5-7.9-12.9-14.7-21.2-19.5-1.8-1.1-3.6-2.2-5.2-3.5l-17.2-12.9c23.9-10.9 50.5-17 78.5-17zm-90.6 23.1 22.1 16.5c2 1.5 4.2 2.9 6.4 4.2 6.9 4 12.9 9.5 17.4 16l13.2 18.9c3.7 5.2 3.5 12.2-.4 17.2l-6.1 7.9c-1.7 2.2-4.6 3.4-7.4 3.1l-6.9-.9c-12.4-1.6-24.5 4.4-30.8 15.1-1.6 2.7-4.9 4.3-8.2 3.8l-15.9-2c-12-1.5-23.7 3.7-30.5 13.7-6.5 9.5-6.7 21.9-.5 31.7l10.6 16.6c7.6 12 23.5 16.1 36.1 9.4l10.9-5.8c4.3-2.3 9.6-2.2 13.9.3l20.7 12.3c1.8 1.1 3.9 1.6 6 1.6 7.2-.2 14.4 3.6 19.1 10.2l14.5 19.4c-3 3.5-6.2 7-9.3 10.5-17.5 19.4-33.8 36.1-49 49.9l-24.9-33c-1.6-2-2.7-4.3-3.4-6.8l-7.4-26.6c-3.2-11.4-12.3-20.5-23.8-23.6l-1.6-.4c-2.3-.6-4.5-1.8-6.2-3.5l-13.8-12.9c-1.8-1.7-3.3-3.5-4.5-5.6-7.4-12.6-21.5-19.6-35.8-18 7.5-59.9 44.3-111.1 95.5-139.2zm-97.6 164c0-4.1.2-8.2.4-12.3l.6-.1c10.3-2 20.8 2.7 26.2 11.8 1.8 3.1 4 5.9 6.7 8.3l13.8 12.9c3.2 3 7.1 5.1 11.3 6.3l1.6.4c7.4 2 13.3 7.9 15.4 15.2l7.4 26.6c1.1 3.9 2.9 7.6 5.4 10.9l25.2 33.9c-16.2 14-31 24.5-44.2 31.4-44.4-35.7-69.8-88.5-69.8-145.3zm9.7 90.4c11.6 22.7 27.7 43.2 47.7 60.3-16.3 6-46.1 14-57.2 2.5-8.8-9-5.4-31.2 9.5-62.8zm64.1 101.2c-16 6.8-32.3 11.2-48.3 13.1-12.5 1.4-23.2 1.3-31.9-.4-10.2-2-17.3-6.3-21.1-12.6-5.5-9.3-6.5-27.3 11.5-62.2-2 14.3.5 25 7.6 32.3 6.8 6.9 16.6 9.3 27.2 9.3 24.4 0 52.4-13 52.8-13.2 29.6-14.5 66.4-46.2 109.4-94.1 30.4-33.8 56.1-67.2 68.7-84.1l6.7 6.1c-.2 0-.5 0-.7 0-1.7.1-3.3.4-4.9.9-7.9 2.4-13.4 9.3-14 17.5l-1.4 17.8c-.1 1.8.6 3.7 1.9 4.9 1.1 1 2.6 1.6 4 1.6.3 0 .7 0 1-.1l17.6-3c7.9-1.4 14.2-7.3 16-15.1.4-1.8.6-3.6.5-5.5 0-.2 0-.5-.1-.7l4.3 4c-23.4 40.7-87.3 132.5-206.8 183.5zm243.4-55.3c-35 32.8-80.8 50.8-129 50.8-20.5 0-40.6-3.2-59.8-9.6 92.5-54.4 143.6-130.1 163.7-165.3v-.1c1.7-2.5 2.9-5.3 3.4-8.2l3.6-18.3 10.1 8.2c-4.9 14.4-1.2 31 10.6 42l22.6 20.8c1.1 1 2.6 1.6 4.1 1.6h.3c1.6-.1 3.1-.8 4.2-2l22.8-25.4c-6.6 40.2-26.3 77.1-56.6 105.5zm60.4-127.7-31.4 35-18.1-16.7c-10.7-9.9-11.8-26.5-2.7-37.7 15.1-5.9 29.1-13.5 42-22.6.7 6.9 3.8 13.5 9.2 18.4 3.3 3 5.2 7.1 5.5 11.6.1 4.4-1.5 8.7-4.5 12z" data-original="#000000" class="active-path" data-old_color="#000000" fill="#FAAD14"/><path d="m344.5 479.9c-4.4 0-8 3.6-8 8s3.6 8 8 8 8-3.6 8-8-3.6-8-8-8z" data-original="#000000" class="active-path" data-old_color="#000000" fill="#FAAD14"/><path d="m356.6 450.7c-6.1 0-11 4.9-11 11s4.9 11 11 11 11-4.9 11-11-4.9-11-11-11zm0 12c-.5 0-1-.4-1-1s.4-1 1-1 1 .4 1 1-.5 1-1 1z" data-original="#000000" class="active-path" data-old_color="#000000" fill="#FAAD14"/><path d="m40.7 55.3c4.4 0 8-3.6 8-8s-3.6-8-8-8-8 3.6-8 8 3.6 8 8 8z" data-original="#000000" class="active-path" data-old_color="#000000" fill="#FAAD14"/><path d="m52.8 32.1c6.1 0 11-4.9 11-11s-4.9-11-11-11-11 4.9-11 11 4.9 11 11 11zm0-12c.5 0 1 .4 1 1s-.4 1-1 1c-.5 0-1-.4-1-1s.5-1 1-1z" data-original="#000000" class="active-path" data-old_color="#000000" fill="#FAAD14"/><path d="m154.6 31.8c5.3 1.8 9.5 6 11.3 11.3.8 2.5 3.1 4.1 5.7 4.1s4.9-1.7 5.7-4.1c1.8-5.3 6-9.6 11.3-11.3 2.4-.8 4.1-3.1 4.1-5.7s-1.6-4.9-4.1-5.7c-5.3-1.8-9.5-6-11.3-11.3-.8-2.5-3.1-4.1-5.7-4.1s-4.9 1.7-5.7 4.1c-1.8 5.3-6 9.6-11.3 11.3-2.4.8-4.1 3.1-4.1 5.7s1.7 4.9 4.1 5.7zm17-8.9c1 1.1 2.1 2.2 3.2 3.2-1.1 1-2.2 2.1-3.2 3.2-1-1.1-2.1-2.2-3.2-3.2 1.1-1 2.2-2 3.2-3.2z" data-original="#000000" class="active-path" data-old_color="#000000" fill="#FAAD14"/><path d="m237.9 480.2c-5.3-1.8-9.5-6-11.3-11.3-.8-2.5-3.1-4.1-5.7-4.1s-4.9 1.7-5.7 4.1c-1.8 5.3-6 9.6-11.3 11.3-2.4.8-4.1 3.1-4.1 5.7s1.6 4.9 4.1 5.7c5.3 1.8 9.5 6 11.3 11.3.8 2.5 3.1 4.1 5.7 4.1s4.9-1.7 5.7-4.1c1.8-5.3 6-9.6 11.3-11.3 2.4-.8 4.1-3.1 4.1-5.7s-1.7-4.9-4.1-5.7zm-17 8.9c-1-1.1-2.1-2.2-3.2-3.2 1.1-1 2.2-2.1 3.2-3.2 1 1.1 2.1 2.2 3.2 3.2-1.2 1-2.2 2-3.2 3.2z" data-original="#000000" class="active-path" data-old_color="#000000" fill="#FAAD14"/><path d="m490.4 427.9c-5.3-1.8-9.5-6-11.3-11.3-.8-2.5-3.1-4.1-5.7-4.1s-4.9 1.7-5.7 4.1c-1.8 5.3-6 9.6-11.3 11.3-2.4.8-4.1 3.1-4.1 5.7s1.7 4.9 4.1 5.7c5.3 1.8 9.5 6 11.3 11.3.8 2.5 3.1 4.1 5.7 4.1s4.9-1.7 5.7-4.1c1.8-5.3 6-9.6 11.3-11.3 2.4-.8 4.1-3.1 4.1-5.7s-1.7-4.9-4.1-5.7zm-17 8.9c-1-1.1-2.1-2.2-3.2-3.2 1.1-1 2.2-2.1 3.2-3.2 1 1.1 2.1 2.2 3.2 3.2-1.2.9-2.2 2-3.2 3.2z" data-original="#000000" class="active-path" data-old_color="#000000" fill="#FAAD14"/><path d="m197.1 380.5c-.9.7-1.9 1.5-2.8 2.2-2.6 2-3.1 5.8-1 8.4 1.2 1.5 2.9 2.3 4.7 2.3 1.3 0 2.6-.4 3.7-1.3 1-.8 1.9-1.5 2.9-2.3 2.6-2.1 3-5.8.9-8.4-2-2.5-5.8-3-8.4-.9z" data-original="#000000" class="active-path" data-old_color="#000000" fill="#FAAD14"/><path d="m224.8 356.5c-4.8 4.5-9.8 9-14.8 13.3-2.5 2.2-2.8 6-.6 8.5 1.2 1.4 2.9 2.1 4.5 2.1 1.4 0 2.8-.5 3.9-1.5 5.1-4.4 10.2-9 15.2-13.7 2.4-2.3 2.5-6.1.2-8.5-2.2-2.4-6-2.5-8.4-.2z" data-original="#000000" class="active-path" data-old_color="#000000" fill="#FAAD14"/><path d="m273.2 312.5c-2.6-2.1-6.3-1.7-8.4.9-8.7 10.7-18 21.1-27.5 30.8-2.3 2.4-2.3 6.2.1 8.5 1.2 1.1 2.7 1.7 4.2 1.7 1.6 0 3.1-.6 4.3-1.8 9.8-10 19.3-20.7 28.2-31.7 2.1-2.6 1.7-6.3-.9-8.4z" data-original="#000000" class="active-path" data-old_color="#000000" fill="#FAAD14"/><path d="m412 171.5c16.6 0 30-13.5 30-30s-13.5-30-30-30-30 13.5-30 30 13.4 30 30 30zm0-48c9.9 0 18 8.1 18 18s-8.1 18-18 18-18-8.1-18-18 8-18 18-18z" data-original="#000000" class="active-path" data-old_color="#000000" fill="#FAAD14"/></g></g> </svg>
