<svg width="512" height="512" viewBox="0 0 512 512" fill="none" xmlns="http://www.w3.org/2000/svg">
<path d="M97.9 84.9C99.2 84.9 100.6 84.5 101.7 83.6C105.5 80.6 109.4 77.6 113.4 74.8C116.1 72.9 116.8 69.2 114.9 66.4C113 63.7 109.3 63 106.5 64.9C102.3 67.8 98.2 71 94.2 74.2C91.6 76.3 91.2 80.1 93.3 82.6C94.4 84.2 96.1 84.9 97.9 84.9V84.9Z" fill="#FAAD14"/>
<path d="M26.3998 179.6C27.0998 179.9 27.7998 180 28.4998 180C30.8998 180 33.1998 178.5 34.0998 176.1C45.0998 147.2 61.9998 121.2 84.2998 99C86.6998 96.7 86.6998 92.9 84.2998 90.5C81.9998 88.1 78.1998 88.1 75.7998 90.5C52.2998 113.9 34.3998 141.3 22.7998 171.8C21.7998 175 23.2998 178.4 26.3998 179.6V179.6Z" fill="#FAAD14"/>
<path d="M437 362.8C434.2 361.1 430.5 362 428.8 364.9C425.4 370.5 421.8 376.1 417.9 381.4C415.9 384.1 416.5 387.8 419.2 389.8C420.3 390.6 421.5 391 422.7 391C424.6 391 426.4 390.1 427.6 388.5C431.7 382.9 435.6 377 439.1 371.1C440.8 368.1 439.9 364.5 437 362.8Z" fill="#FAAD14"/>
<path d="M462.2 318.1C465.6 306.5 468.1 294.5 469.6 282.4C470.8 272.9 471.4 263.1 471.4 253.5C471.4 250.2 468.7 247.5 465.4 247.5C462.1 247.5 459.4 250.2 459.4 253.5C459.4 262.7 458.8 271.9 457.7 280.9C456.3 292.3 453.9 303.7 450.7 314.7C448.7 321.4 446.4 328.1 443.8 334.6C442.2 338.6 440.5 342.5 438.6 346.4C437.2 349.4 438.5 353 441.5 354.4C442.3 354.8 443.2 355 444.1 355C446.3 355 448.5 353.7 449.5 351.6C451.4 347.5 453.3 343.3 455 339.1C457.7 332.2 460.1 325.2 462.2 318.1V318.1Z" fill="#FAAD14"/>
<path d="M132.4 63.6C136.2 63.6 139.3 60.5 139.3 56.7C139.3 52.9 136.2 49.8 132.4 49.8C128.6 49.8 125.5 52.9 125.5 56.7C125.5 60.5 128.6 63.6 132.4 63.6Z" fill="#FAAD14"/>
<path d="M406.2 396.5C402.4 396.5 399.3 399.6 399.3 403.4C399.3 407.2 402.4 410.3 406.2 410.3C410 410.3 413.1 407.2 413.1 403.4C413.1 399.6 410 396.5 406.2 396.5Z" fill="#FAAD14"/>
<path d="M436.1 229.5C430.5 224.4 429.1 216.1 432.5 209.5C478.9 170.4 506.2 111 503.2 47.5C503 44.2 500.3 41.6 496.9 41.8C452.2 43.9 410.6 60.4 376.4 89.6C372.9 92.6 369.4 95.8 366.1 99C330.5 70.1 285.8 54.2 239.6 54.2C129.2 54.2 39.3999 143.5 39.3999 253.3C39.3999 279.8 44.5999 305.5 54.3999 329.2C13.2999 388.1 -0.000112534 428 13.6999 451.2C21.4999 464.3 37.7999 471.1 61.2999 471.1C66.5999 471.1 72.2999 470.8 78.2999 470.1C95.4999 468.1 112.9 463.4 130 456.1C142.7 450.7 154.7 444.8 166.2 438.7C189.6 447.9 214.3 452.6 239.8 452.6C291 452.6 339.7 433.4 377 398.5C413.6 364.2 435.7 318.2 439.5 268.5C448.6 256.8 447.3 239.7 436.1 229.5ZM491.4 54.2C491.5 64 490.9 73.7 489.6 83.2C478.8 77.3 469.5 68.9 462.6 58.7C472 56.5 481.6 55 491.4 54.2ZM384.3 98.8C404 81.9 426.4 69.6 450.5 62.1C459.3 76.5 472.2 88.2 487.4 95.6C473.9 159.5 427.6 213.3 363.7 234.7L323.3 197.9C332.6 159.7 354.1 124.6 384.3 98.8ZM312.2 226.9L331.8 221.8L340.4 229.6L336.5 249L312.2 226.9ZM316 258.7C316 259.4 316 260.2 315.8 260.9C315.1 264 312.6 266.3 309.5 266.9L299.5 268.6L300.3 258.5C300.5 255.3 302.8 252.5 305.9 251.6C306.5 251.4 307.2 251.3 307.8 251.3H308.2C310.2 251.3 312 252 313.5 253.4C315 254.7 315.9 256.6 316 258.7ZM314 186.3C303.7 196 287.3 196.3 276.6 186.7L258.3 170.2L290.2 135.7C293.2 132.4 297.3 130.5 301.8 130.2C306.3 130 310.6 131.5 313.9 134.5C319.3 139.4 326.1 141.9 333 141.9C324.9 155.9 318.5 170.8 314 186.3ZM239.7 66.4C282.8 66.4 324.5 81.1 357.9 107.9C352.3 114.1 347.2 120.6 342.4 127.4C336.1 131.5 327.6 130.9 322 125.8C316.3 120.6 309 118 301.3 118.3C293.6 118.7 286.6 122 281.4 127.6L245.4 166.6C244.3 167.8 243.7 169.3 243.8 170.9C243.9 172.5 244.6 174 245.8 175.1L268.7 195.6C276.2 202.4 285.7 205.7 295.2 205.7C300.7 205.7 306.2 204.6 311.3 202.3L321.3 212.2L304.6 216.6C303 217 301.5 217.6 300.1 218.3C297.1 219.8 294.5 222.2 292.5 224.9C282.6 238.1 263.9 262.6 241 289.5L228.3 272.3C221.3 262.6 210.5 257 199.4 257.2L178.9 245C171.1 240.3 161.3 240.1 153.3 244.4L142.4 250.2C135.3 254 126.4 251.6 122.1 244.9L111.5 228.3C107.9 222.6 108 215.4 111.8 209.8C116.1 203.6 123.4 200.3 130.9 201.2L146.8 203.2C155 204.2 162.9 200.4 166.9 193.5C170.8 186.9 178.2 183.3 185.8 184.2L192.7 185.1C199.7 186 206.8 183.1 211.1 177.5L217.2 169.6C224.3 160.4 224.7 147.8 218 138.2L204.8 119.3C199.3 111.4 191.9 104.6 183.6 99.8C181.8 98.7 180 97.6 178.4 96.3L161.2 83.4C185.1 72.5 211.7 66.4 239.7 66.4ZM149.1 89.5L171.2 106C173.2 107.5 175.4 108.9 177.6 110.2C184.5 114.2 190.5 119.7 195 126.2L208.2 145.1C211.9 150.3 211.7 157.3 207.8 162.3L201.7 170.2C200 172.4 197.1 173.6 194.3 173.3L187.4 172.4C175 170.8 162.9 176.8 156.6 187.5C155 190.2 151.7 191.8 148.4 191.3L132.5 189.3C120.5 187.8 108.8 193 102 203C95.4999 212.5 95.2999 224.9 101.5 234.7L112.1 251.3C119.7 263.3 135.6 267.4 148.2 260.7L159.1 254.9C163.4 252.6 168.7 252.7 173 255.2L193.7 267.5C195.5 268.6 197.6 269.1 199.7 269.1C206.9 268.9 214.1 272.7 218.8 279.3L233.3 298.7C230.3 302.2 227.1 305.7 224 309.2C206.5 328.6 190.2 345.3 175 359.1L150.1 326.1C148.5 324.1 147.4 321.8 146.7 319.3L139.3 292.7C136.1 281.3 127 272.2 115.5 269.1L113.9 268.7C111.6 268.1 109.4 266.9 107.7 265.2L93.8999 252.3C92.0999 250.6 90.5999 248.8 89.3999 246.7C81.9999 234.1 67.8999 227.1 53.5999 228.7C61.0999 168.8 97.8999 117.6 149.1 89.5ZM51.4999 253.5C51.4999 249.4 51.6999 245.3 51.8999 241.2L52.4999 241.1C62.7999 239.1 73.2999 243.8 78.6999 252.9C80.4999 256 82.6999 258.8 85.3999 261.2L99.1999 274.1C102.4 277.1 106.3 279.2 110.5 280.4L112.1 280.8C119.5 282.8 125.4 288.7 127.5 296L134.9 322.6C136 326.5 137.8 330.2 140.3 333.5L165.5 367.4C149.3 381.4 134.5 391.9 121.3 398.8C76.8999 363.1 51.4999 310.3 51.4999 253.5ZM61.1999 343.9C72.7999 366.6 88.8999 387.1 108.9 404.2C92.5999 410.2 62.7999 418.2 51.6999 406.7C42.8999 397.7 46.2999 375.5 61.1999 343.9ZM125.3 445.1C109.3 451.9 92.9999 456.3 76.9999 458.2C64.4999 459.6 53.7999 459.5 45.0999 457.8C34.8999 455.8 27.7999 451.5 23.9999 445.2C18.4999 435.9 17.4999 417.9 35.4999 383C33.4999 397.3 35.9999 408 43.0999 415.3C49.8999 422.2 59.6999 424.6 70.2999 424.6C94.6999 424.6 122.7 411.6 123.1 411.4C152.7 396.9 189.5 365.2 232.5 317.3C262.9 283.5 288.6 250.1 301.2 233.2L307.9 239.3C307.7 239.3 307.4 239.3 307.2 239.3C305.5 239.4 303.9 239.7 302.3 240.2C294.4 242.6 288.9 249.5 288.3 257.7L286.9 275.5C286.8 277.3 287.5 279.2 288.8 280.4C289.9 281.4 291.4 282 292.8 282C293.1 282 293.5 282 293.8 281.9L311.4 278.9C319.3 277.5 325.6 271.6 327.4 263.8C327.8 262 328 260.2 327.9 258.3C327.9 258.1 327.9 257.8 327.8 257.6L332.1 261.6C308.7 302.3 244.8 394.1 125.3 445.1ZM368.7 389.8C333.7 422.6 287.9 440.6 239.7 440.6C219.2 440.6 199.1 437.4 179.9 431C272.4 376.6 323.5 300.9 343.6 265.7V265.6C345.3 263.1 346.5 260.3 347 257.4L350.6 239.1L360.7 247.3C355.8 261.7 359.5 278.3 371.3 289.3L393.9 310.1C395 311.1 396.5 311.7 398 311.7H398.3C399.9 311.6 401.4 310.9 402.5 309.7L425.3 284.3C418.7 324.5 399 361.4 368.7 389.8ZM429.1 262.1L397.7 297.1L379.6 280.4C368.9 270.5 367.8 253.9 376.9 242.7C392 236.8 406 229.2 418.9 220.1C419.6 227 422.7 233.6 428.1 238.5C431.4 241.5 433.3 245.6 433.6 250.1C433.7 254.5 432.1 258.8 429.1 262.1Z" fill="#FAAD14"/>
<path d="M344.5 479.9C340.1 479.9 336.5 483.5 336.5 487.9C336.5 492.3 340.1 495.9 344.5 495.9C348.9 495.9 352.5 492.3 352.5 487.9C352.5 483.5 348.9 479.9 344.5 479.9Z" fill="#FAAD14"/>
<path d="M356.6 450.7C350.5 450.7 345.6 455.6 345.6 461.7C345.6 467.8 350.5 472.7 356.6 472.7C362.7 472.7 367.6 467.8 367.6 461.7C367.6 455.6 362.7 450.7 356.6 450.7ZM356.6 462.7C356.1 462.7 355.6 462.3 355.6 461.7C355.6 461.1 356 460.7 356.6 460.7C357.2 460.7 357.6 461.1 357.6 461.7C357.6 462.3 357.1 462.7 356.6 462.7Z" fill="#FAAD14"/>
<path d="M40.7 55.3C45.1 55.3 48.7 51.7 48.7 47.3C48.7 42.9 45.1 39.3 40.7 39.3C36.3 39.3 32.7 42.9 32.7 47.3C32.7 51.7 36.3 55.3 40.7 55.3Z" fill="#FAAD14"/>
<path d="M52.7998 32.1C58.8998 32.1 63.7998 27.2 63.7998 21.1C63.7998 15 58.8998 10.1 52.7998 10.1C46.6998 10.1 41.7998 15 41.7998 21.1C41.7998 27.2 46.6998 32.1 52.7998 32.1ZM52.7998 20.1C53.2998 20.1 53.7998 20.5 53.7998 21.1C53.7998 21.7 53.3998 22.1 52.7998 22.1C52.2998 22.1 51.7998 21.7 51.7998 21.1C51.7998 20.5 52.2998 20.1 52.7998 20.1Z" fill="#FAAD14"/>
<path d="M154.6 31.8C159.9 33.6 164.1 37.8 165.9 43.1C166.7 45.6 169 47.2 171.6 47.2C174.2 47.2 176.5 45.5 177.3 43.1C179.1 37.8 183.3 33.5 188.6 31.8C191 31 192.7 28.7 192.7 26.1C192.7 23.5 191.1 21.2 188.6 20.4C183.3 18.6 179.1 14.4 177.3 9.1C176.5 6.6 174.2 5 171.6 5C169 5 166.7 6.7 165.9 9.1C164.1 14.4 159.9 18.7 154.6 20.4C152.2 21.2 150.5 23.5 150.5 26.1C150.5 28.7 152.2 31 154.6 31.8ZM171.6 22.9C172.6 24 173.7 25.1 174.8 26.1C173.7 27.1 172.6 28.2 171.6 29.3C170.6 28.2 169.5 27.1 168.4 26.1C169.5 25.1 170.6 24.1 171.6 22.9Z" fill="#FAAD14"/>
<path d="M237.9 480.2C232.6 478.4 228.4 474.2 226.6 468.9C225.8 466.4 223.5 464.8 220.9 464.8C218.3 464.8 216 466.5 215.2 468.9C213.4 474.2 209.2 478.5 203.9 480.2C201.5 481 199.8 483.3 199.8 485.9C199.8 488.5 201.4 490.8 203.9 491.6C209.2 493.4 213.4 497.6 215.2 502.9C216 505.4 218.3 507 220.9 507C223.5 507 225.8 505.3 226.6 502.9C228.4 497.6 232.6 493.3 237.9 491.6C240.3 490.8 242 488.5 242 485.9C242 483.3 240.3 481 237.9 480.2ZM220.9 489.1C219.9 488 218.8 486.9 217.7 485.9C218.8 484.9 219.9 483.8 220.9 482.7C221.9 483.8 223 484.9 224.1 485.9C222.9 486.9 221.9 487.9 220.9 489.1Z" fill="#FAAD14"/>
<path d="M490.4 427.9C485.1 426.1 480.9 421.9 479.1 416.6C478.3 414.1 476 412.5 473.4 412.5C470.8 412.5 468.5 414.2 467.7 416.6C465.9 421.9 461.7 426.2 456.4 427.9C454 428.7 452.3 431 452.3 433.6C452.3 436.2 454 438.5 456.4 439.3C461.7 441.1 465.9 445.3 467.7 450.6C468.5 453.1 470.8 454.7 473.4 454.7C476 454.7 478.3 453 479.1 450.6C480.9 445.3 485.1 441 490.4 439.3C492.8 438.5 494.5 436.2 494.5 433.6C494.5 431 492.8 428.7 490.4 427.9ZM473.4 436.8C472.4 435.7 471.3 434.6 470.2 433.6C471.3 432.6 472.4 431.5 473.4 430.4C474.4 431.5 475.5 432.6 476.6 433.6C475.4 434.5 474.4 435.6 473.4 436.8Z" fill="#FAAD14"/>
<path d="M197.1 380.5C196.2 381.2 195.2 382 194.3 382.7C191.7 384.7 191.2 388.5 193.3 391.1C194.5 392.6 196.2 393.4 198 393.4C199.3 393.4 200.6 393 201.7 392.1C202.7 391.3 203.6 390.6 204.6 389.8C207.2 387.7 207.6 384 205.5 381.4C203.5 378.9 199.7 378.4 197.1 380.5V380.5Z" fill="#FAAD14"/>
<path d="M224.8 356.5C220 361 215 365.5 210 369.8C207.5 372 207.2 375.8 209.4 378.3C210.6 379.7 212.3 380.4 213.9 380.4C215.3 380.4 216.7 379.9 217.8 378.9C222.9 374.5 228 369.9 233 365.2C235.4 362.9 235.5 359.1 233.2 356.7C231 354.3 227.2 354.2 224.8 356.5V356.5Z" fill="#FAAD14"/>
<path d="M273.2 312.5C270.6 310.4 266.9 310.8 264.8 313.4C256.1 324.1 246.8 334.5 237.3 344.2C235 346.6 235 350.4 237.4 352.7C238.6 353.8 240.1 354.4 241.6 354.4C243.2 354.4 244.7 353.8 245.9 352.6C255.7 342.6 265.2 331.9 274.1 320.9C276.2 318.3 275.8 314.6 273.2 312.5V312.5Z" fill="#FAAD14"/>
<path d="M412 171.5C428.6 171.5 442 158 442 141.5C442 125 428.5 111.5 412 111.5C395.5 111.5 382 125 382 141.5C382 158 395.4 171.5 412 171.5ZM412 123.5C421.9 123.5 430 131.6 430 141.5C430 151.4 421.9 159.5 412 159.5C402.1 159.5 394 151.4 394 141.5C394 131.6 402 123.5 412 123.5Z" fill="#FAAD14"/>
</svg>
