<svg id="Capa_1" fill="#FAAD14" enable-background="new 0 0 510 510" height="512" viewBox="0 0 510 510" width="512" xmlns="http://www.w3.org/2000/svg"><g><path d="m135 293.5h-42.172l31.247-84.814-28.15-10.372-35.925 97.511v27.675h75v60h30v-60-30-30h-30z"/><path d="m420 293.5h-42.172l31.247-84.814-28.15-10.372-35.925 97.511v27.675h75v60h30v-120h-30z"/><path d="m255 198.5c-30.327 0-55 24.673-55 55v75c0 30.327 24.673 55 55 55s55-24.673 55-55v-75c0-30.327-24.673-55-55-55zm25 130c0 13.785-11.215 25-25 25s-25-11.215-25-25v-75c0-13.785 11.215-25 25-25s25 11.215 25 25z"/><path d="m0 22.5v407.308c0 31.811 25.881 57.692 57.692 57.692h394.615c31.812 0 57.692-25.881 57.692-57.692v-407.308zm480 90h-60v-60h60zm-420-60v30h30v-30h30v30h30v-30h30v30h30v-30h180v60h-360v-60zm392.308 405h-394.616c-15.269 0-27.692-12.423-27.692-27.692v-287.308h450v287.308c0 15.269-12.423 27.692-27.692 27.692z"/></g></svg>